<svg width="18" height="18" viewBox="0 0 18 18" fill="none" xmlns="http://www.w3.org/2000/svg">
<path d="M12.9583 9.83317C13.5833 9.83317 14.1333 9.4915 14.4166 8.97484L17.4 3.5665C17.7083 3.0165 17.3083 2.33317 16.675 2.33317H4.34165L3.55831 0.666504H0.833313V2.33317H2.49998L5.49998 8.65817L4.37498 10.6915C3.76665 11.8082 4.56665 13.1665 5.83331 13.1665H15.8333V11.4998H5.83331L6.74998 9.83317H12.9583ZM5.13331 3.99984H15.2583L12.9583 8.1665H7.10831L5.13331 3.99984ZM5.83331 13.9998C4.91665 13.9998 4.17498 14.7498 4.17498 15.6665C4.17498 16.5832 4.91665 17.3332 5.83331 17.3332C6.74998 17.3332 7.49998 16.5832 7.49998 15.6665C7.49998 14.7498 6.74998 13.9998 5.83331 13.9998ZM14.1666 13.9998C13.25 13.9998 12.5083 14.7498 12.5083 15.6665C12.5083 16.5832 13.25 17.3332 14.1666 17.3332C15.0833 17.3332 15.8333 16.5832 15.8333 15.6665C15.8333 14.7498 15.0833 13.9998 14.1666 13.9998Z" fill="#5C596D"/>
</svg>
