<svg width="18" height="18" viewBox="0 0 18 18" fill="none" xmlns="http://www.w3.org/2000/svg">
<path d="M12.6219 9.83342C13.2469 9.83342 13.7969 9.49175 14.0803 8.97508L17.0636 3.56675C17.3719 3.01675 16.9719 2.33341 16.3386 2.33341H4.00528L3.22195 0.666748H0.496948V2.33341H2.16361L5.16361 8.65842L4.03861 10.6917C3.43028 11.8084 4.23028 13.1667 5.49695 13.1667H15.4969V11.5001H5.49695L6.41362 9.83342H12.6219ZM4.79695 4.00008H14.9219L12.6219 8.16675H6.77195L4.79695 4.00008ZM5.49695 14.0001C4.58028 14.0001 3.83861 14.7501 3.83861 15.6667C3.83861 16.5834 4.58028 17.3334 5.49695 17.3334C6.41361 17.3334 7.16361 16.5834 7.16361 15.6667C7.16361 14.7501 6.41361 14.0001 5.49695 14.0001ZM13.8303 14.0001C12.9136 14.0001 12.1719 14.7501 12.1719 15.6667C12.1719 16.5834 12.9136 17.3334 13.8303 17.3334C14.7469 17.3334 15.4969 16.5834 15.4969 15.6667C15.4969 14.7501 14.7469 14.0001 13.8303 14.0001Z" fill="white"/>
</svg>
