<svg width="20" height="20" viewBox="0 0 20 20" fill="none" xmlns="http://www.w3.org/2000/svg">
<g clip-path="url(#clip0_207_130)">
<path d="M10 1.6665C6.77502 1.6665 4.16669 4.27484 4.16669 7.49984C4.16669 11.8748 10 18.3332 10 18.3332C10 18.3332 15.8334 11.8748 15.8334 7.49984C15.8334 4.27484 13.225 1.6665 10 1.6665ZM5.83335 7.49984C5.83335 5.19984 7.70002 3.33317 10 3.33317C12.3 3.33317 14.1667 5.19984 14.1667 7.49984C14.1667 9.89984 11.7667 13.4915 10 15.7332C8.26669 13.5082 5.83335 9.87484 5.83335 7.49984Z" fill="#5C596D"/>
<path d="M10 9.58317C11.1506 9.58317 12.0834 8.65043 12.0834 7.49984C12.0834 6.34924 11.1506 5.4165 10 5.4165C8.84943 5.4165 7.91669 6.34924 7.91669 7.49984C7.91669 8.65043 8.84943 9.58317 10 9.58317Z" fill="#5C596D"/>
</g>
<defs>
<clipPath id="clip0_207_130">
<rect width="20" height="20" fill="white"/>
</clipPath>
</defs>
</svg>
